<?xml version="1.0" standalone="no"?><!DOCTYPE svg PUBLIC "-//W3C//DTD SVG 1.1//EN" "http://www.w3.org/Graphics/SVG/1.1/DTD/svg11.dtd"><svg t="1681803504569" class="icon" viewBox="0 0 1024 1024" version="1.1" xmlns="http://www.w3.org/2000/svg" p-id="8085" xmlns:xlink="http://www.w3.org/1999/xlink" width="200" height="200"><path d="M1024 483.428571q0 33.142857-16.857143 60.285714t-45.428571 41.428571q6.857143 26.285714 6.857143 54.857143 0 88.571429-60.857143 164t-166 119.142857-228.571429 43.714286-228.285714-43.714286-165.714286-119.142857-60.857143-164q0-26.857143 6.285714-53.714286-29.142857-14.285714-46.857143-42t-17.714286-60.857143q0-46.857143 33.142857-80.285714t80.571429-33.428571q48.571429 0 82.857143 36 124.571429-86.857143 294.285714-92.571429l66.285714-297.714286q1.714286-7.428571 8.571429-12t14.857143-2.857143l210.857143 46.285714q10.285714-21.142857 30.857143-34t45.142857-12.857143q35.428571 0 60.571429 24.857143t25.142857 60.285714-25.142857 60.571429-60.571429 25.142857-60.285714-24.857143-24.857143-60.285714l-190.857143-42.285714-59.428571 269.714286q171.428571 5.142857 296.571429 91.428571 33.142857-34.857143 81.714286-34.857143 47.428571 0 80.571429 33.428571t33.142857 80.285714zm-785.142857 113.714286q0 35.428571 24.857143 60.571429t60.285714 25.142857 60.571429-25.142857 25.142857-60.571429-25.142857-60.285714-60.571429-24.857143q-34.857143 0-60 25.142857t-25.142857 60zm462.857143 202.857143q6.285714-6.285714 6.285714-14.857143t-6.285714-14.857143q-5.714286-5.714286-14.285714-5.714286t-14.857143 5.714286q-23.428571 24-69.142857 35.428571t-91.428571 11.428571-91.428571-11.428571-69.142857-35.428571q-6.285714-5.714286-14.857143-5.714286t-14.285714 5.714286q-6.285714 5.714286-6.285714 14.571429t6.285714 15.142857q24.571429 24.571429 67.714286 38.857143t70 16.857143 52 2.571429 52-2.571429 70-16.857143 67.714286-38.857143zm-1.714286-117.142857q35.428571 0 60.285714-25.142857t24.857143-60.571429q0-34.857143-25.142857-60t-60-25.142857q-35.428571 0-60.571429 24.857143t-25.142857 60.285714 25.142857 60.571429 60.571429 25.142857z" p-id="8086" fill="#E5E7EB"></path></svg>